<mxfile host="app.diagrams.net" modified="2023-08-10T14:11:08.163Z" agent="Mozilla/5.0 (X11; Ubuntu; Linux x86_64; rv:109.0) Gecko/20100101 Firefox/115.0" etag="ZyjGf-uudh9XTqBPIO2s" version="21.6.7" type="github">
  <diagram id="C5RBs43oDa-KdzZeNtuy" name="Page-1">
    <mxGraphModel dx="781" dy="795" grid="1" gridSize="10" guides="1" tooltips="1" connect="1" arrows="1" fold="1" page="1" pageScale="1" pageWidth="827" pageHeight="1169" math="0" shadow="0">
      <root>
        <mxCell id="WIyWlLk6GJQsqaUBKTNV-0" />
        <mxCell id="WIyWlLk6GJQsqaUBKTNV-1" parent="WIyWlLk6GJQsqaUBKTNV-0" />
        <mxCell id="USDanAkHQFgCQKbm2OGE-0" value="Stock" style="swimlane;fontStyle=1;align=center;verticalAlign=top;childLayout=stackLayout;horizontal=1;startSize=26;horizontalStack=0;resizeParent=1;resizeParentMax=0;resizeLast=0;collapsible=1;marginBottom=0;whiteSpace=wrap;html=1;" parent="WIyWlLk6GJQsqaUBKTNV-1" vertex="1">
          <mxGeometry y="40" width="180" height="210" as="geometry" />
        </mxCell>
        <mxCell id="USDanAkHQFgCQKbm2OGE-1" value="&lt;meta charset=&quot;utf-8&quot;&gt;&lt;p id=&quot;docs-internal-guid-cec5944d-7fff-b6c2-93db-d9ab82f65ef7&quot; style=&quot;line-height:1.2;margin-top:2.85pt;margin-bottom:11.9pt;&quot; dir=&quot;ltr&quot;&gt;&lt;span style=&quot;font-size: 12pt; font-family: FreeSerif; color: rgb(0, 0, 0); background-color: transparent; font-weight: 400; font-style: normal; font-variant: normal; text-decoration: none; vertical-align: baseline;&quot;&gt;-amount: int&amp;nbsp;&lt;/span&gt;&lt;/p&gt;&lt;p style=&quot;line-height:1.2;margin-top:2.85pt;margin-bottom:11.9pt;&quot; dir=&quot;ltr&quot;&gt;&lt;span style=&quot;font-size: 12pt; font-family: FreeSerif; color: rgb(0, 0, 0); background-color: transparent; font-weight: 400; font-style: normal; font-variant: normal; text-decoration: none; vertical-align: baseline;&quot;&gt;-id: int&lt;/span&gt;&lt;/p&gt;" style="text;strokeColor=none;fillColor=none;align=left;verticalAlign=top;spacingLeft=4;spacingRight=4;overflow=hidden;rotatable=0;points=[[0,0.5],[1,0.5]];portConstraint=eastwest;whiteSpace=wrap;html=1;" parent="USDanAkHQFgCQKbm2OGE-0" vertex="1">
          <mxGeometry y="26" width="180" height="74" as="geometry" />
        </mxCell>
        <mxCell id="USDanAkHQFgCQKbm2OGE-2" value="" style="line;strokeWidth=1;fillColor=none;align=left;verticalAlign=middle;spacingTop=-1;spacingLeft=3;spacingRight=3;rotatable=0;labelPosition=right;points=[];portConstraint=eastwest;strokeColor=inherit;" parent="USDanAkHQFgCQKbm2OGE-0" vertex="1">
          <mxGeometry y="100" width="180" height="8" as="geometry" />
        </mxCell>
        <mxCell id="USDanAkHQFgCQKbm2OGE-3" value="&lt;meta charset=&quot;utf-8&quot;&gt;&lt;p id=&quot;docs-internal-guid-5777485f-7fff-cf20-8ffb-2ee56ffb0585&quot; style=&quot;line-height:1.2;margin-top:2.85pt;margin-bottom:11.9pt;&quot; dir=&quot;ltr&quot;&gt;&lt;span style=&quot;font-size: 12pt; font-family: FreeSerif; color: rgb(0, 0, 0); background-color: transparent; font-weight: 400; font-style: normal; font-variant: normal; text-decoration: none; vertical-align: baseline;&quot;&gt;+get/set()&lt;/span&gt;&lt;/p&gt;&lt;span style=&quot;font-size: 12pt; font-family: FreeSerif; color: rgb(0, 0, 0); background-color: transparent; font-weight: 400; font-style: normal; font-variant: normal; text-decoration: none; vertical-align: baseline;&quot;&gt;+&lt;/span&gt;&lt;span style=&quot;font-size: 10.5pt; font-family: &amp;quot;Courier New&amp;quot;, monospace; color: rgb(0, 0, 0); background-color: transparent; font-weight: 400; font-style: normal; font-variant: normal; text-decoration: none; vertical-align: baseline;&quot;&gt;addAmount(int):void&lt;/span&gt;" style="text;strokeColor=none;fillColor=none;align=left;verticalAlign=top;spacingLeft=4;spacingRight=4;overflow=hidden;rotatable=0;points=[[0,0.5],[1,0.5]];portConstraint=eastwest;whiteSpace=wrap;html=1;" parent="USDanAkHQFgCQKbm2OGE-0" vertex="1">
          <mxGeometry y="108" width="180" height="102" as="geometry" />
        </mxCell>
        <mxCell id="USDanAkHQFgCQKbm2OGE-4" value="Account" style="swimlane;fontStyle=1;align=center;verticalAlign=top;childLayout=stackLayout;horizontal=1;startSize=26;horizontalStack=0;resizeParent=1;resizeParentMax=0;resizeLast=0;collapsible=1;marginBottom=0;whiteSpace=wrap;html=1;" parent="WIyWlLk6GJQsqaUBKTNV-1" vertex="1">
          <mxGeometry x="184" y="40" width="256" height="570" as="geometry" />
        </mxCell>
        <mxCell id="USDanAkHQFgCQKbm2OGE-5" value="&lt;meta charset=&quot;utf-8&quot;&gt;&lt;p id=&quot;docs-internal-guid-14b80490-7fff-1db8-07db-3caa1122524c&quot; style=&quot;line-height:1.2;margin-top:2.85pt;margin-bottom:11.9pt;&quot; dir=&quot;ltr&quot;&gt;&lt;span style=&quot;font-size: 12pt; font-family: FreeSerif; color: rgb(0, 0, 0); background-color: transparent; font-weight: 400; font-style: normal; font-variant: normal; text-decoration: none; vertical-align: baseline;&quot;&gt;-id: int&lt;/span&gt;&lt;/p&gt;&lt;p style=&quot;line-height:1.2;margin-top:2.85pt;margin-bottom:11.9pt;&quot; dir=&quot;ltr&quot;&gt;&lt;span style=&quot;font-size: 12pt; font-family: FreeSerif; color: rgb(0, 0, 0); background-color: transparent; font-weight: 400; font-style: normal; font-variant: normal; text-decoration: none; vertical-align: baseline;&quot;&gt;-balance: float&lt;/span&gt;&lt;/p&gt;&lt;p style=&quot;line-height:1.2;margin-top:2.85pt;margin-bottom:11.9pt;&quot; dir=&quot;ltr&quot;&gt;&lt;span style=&quot;font-size: 12pt; font-family: FreeSerif; color: rgb(0, 0, 0); background-color: transparent; font-weight: 400; font-style: normal; font-variant: normal; text-decoration: none; vertical-align: baseline;&quot;&gt;-holding[ ]: stock[ ]&lt;/span&gt;&lt;/p&gt;" style="text;strokeColor=none;fillColor=none;align=left;verticalAlign=top;spacingLeft=4;spacingRight=4;overflow=hidden;rotatable=0;points=[[0,0.5],[1,0.5]];portConstraint=eastwest;whiteSpace=wrap;html=1;" parent="USDanAkHQFgCQKbm2OGE-4" vertex="1">
          <mxGeometry y="26" width="256" height="114" as="geometry" />
        </mxCell>
        <mxCell id="USDanAkHQFgCQKbm2OGE-6" value="" style="line;strokeWidth=1;fillColor=none;align=left;verticalAlign=middle;spacingTop=-1;spacingLeft=3;spacingRight=3;rotatable=0;labelPosition=right;points=[];portConstraint=eastwest;strokeColor=inherit;" parent="USDanAkHQFgCQKbm2OGE-4" vertex="1">
          <mxGeometry y="140" width="256" height="8" as="geometry" />
        </mxCell>
        <mxCell id="USDanAkHQFgCQKbm2OGE-7" value="&lt;meta charset=&quot;utf-8&quot;&gt;&lt;p id=&quot;docs-internal-guid-605969ac-7fff-cc0c-02e1-c7e7b87c2a62&quot; style=&quot;line-height:1.2;margin-top:2.85pt;margin-bottom:11.9pt;&quot; dir=&quot;ltr&quot;&gt;&lt;span style=&quot;font-size: 12pt; font-family: FreeSerif; color: rgb(0, 0, 0); background-color: transparent; font-weight: 400; font-style: normal; font-variant: normal; text-decoration: none; vertical-align: baseline;&quot;&gt;+get/set()&lt;/span&gt;&lt;/p&gt;&lt;p style=&quot;line-height:1.2;margin-top:2.85pt;margin-bottom:11.9pt;&quot; dir=&quot;ltr&quot;&gt;&lt;span style=&quot;font-size: 12pt; font-family: FreeSerif; color: rgb(0, 0, 0); background-color: transparent; font-weight: 400; font-style: normal; font-variant: normal; text-decoration: none; vertical-align: baseline;&quot;&gt;+addstock(Stock): void&lt;/span&gt;&lt;/p&gt;&lt;p style=&quot;line-height:1.2;margin-top:2.85pt;margin-bottom:11.9pt;&quot; dir=&quot;ltr&quot;&gt;&lt;span style=&quot;font-size: 12pt; font-family: FreeSerif; color: rgb(0, 0, 0); background-color: transparent; font-weight: 400; font-style: normal; font-variant: normal; text-decoration: none; vertical-align: baseline;&quot;&gt;+addbalance(float value): void&lt;/span&gt;&lt;/p&gt;&lt;p style=&quot;line-height:1.2;margin-top:2.85pt;margin-bottom:11.9pt;&quot; dir=&quot;ltr&quot;&gt;&lt;span style=&quot;font-size: 12pt; font-family: FreeSerif; color: rgb(0, 0, 0); background-color: transparent; font-weight: 400; font-style: normal; font-variant: normal; text-decoration: none; vertical-align: baseline;&quot;&gt;+removefrombalance(float value): void&lt;/span&gt;&lt;/p&gt;&lt;p style=&quot;line-height:1.2;margin-top:2.85pt;margin-bottom:11.9pt;&quot; dir=&quot;ltr&quot;&gt;&lt;span style=&quot;font-size: 12pt; font-family: FreeSerif; color: rgb(0, 0, 0); background-color: transparent; font-weight: 400; font-style: normal; font-variant: normal; text-decoration: none; vertical-align: baseline;&quot;&gt;+&lt;/span&gt;&lt;span style=&quot;font-size: 10.5pt; font-family: &amp;quot;Courier New&amp;quot;, monospace; color: rgb(0, 0, 0); background-color: transparent; font-weight: 400; font-style: normal; font-variant: normal; text-decoration: none; vertical-align: baseline;&quot;&gt;updateStockHolding(int, int): void&lt;/span&gt;&lt;/p&gt;&lt;p style=&quot;line-height:1.2;margin-top:2.85pt;margin-bottom:11.9pt;&quot; dir=&quot;ltr&quot;&gt;&lt;span style=&quot;font-size: 10.5pt; font-family: &amp;quot;Courier New&amp;quot;, monospace; color: rgb(0, 0, 0); background-color: transparent; font-weight: 400; font-style: normal; font-variant: normal; text-decoration: none; vertical-align: baseline;&quot;&gt;+insertNewStock(int ,int): void&lt;/span&gt;&lt;/p&gt;&lt;p style=&quot;line-height:1.2;margin-top:2.85pt;margin-bottom:11.9pt;&quot; dir=&quot;ltr&quot;&gt;&lt;span style=&quot;font-size: 10.5pt; font-family: &amp;quot;Courier New&amp;quot;, monospace; color: rgb(0, 0, 0); background-color: transparent; font-weight: 400; font-style: normal; font-variant: normal; text-decoration: none; vertical-align: baseline;&quot;&gt;+changeHolding(int, int): void&lt;/span&gt;&lt;/p&gt;&lt;p style=&quot;line-height:1.2;margin-top:2.85pt;margin-bottom:11.9pt;&quot; dir=&quot;ltr&quot;&gt;&lt;span style=&quot;font-size: 10.5pt; font-family: &amp;quot;Courier New&amp;quot;, monospace; color: rgb(0, 0, 0); background-color: transparent; font-weight: 400; font-style: normal; font-variant: normal; text-decoration: none; vertical-align: baseline;&quot;&gt;+getprice(int): float&lt;/span&gt;&lt;/p&gt;&lt;p style=&quot;line-height:1.2;margin-top:2.85pt;margin-bottom:11.9pt;&quot; dir=&quot;ltr&quot;&gt;&lt;span style=&quot;font-size: 10.5pt; font-family: &amp;quot;Courier New&amp;quot;, monospace; color: rgb(0, 0, 0); background-color: transparent; font-weight: 400; font-style: normal; font-variant: normal; text-decoration: none; vertical-align: baseline;&quot;&gt;+buyStock(int, int): void&lt;/span&gt;&lt;/p&gt;&lt;p style=&quot;line-height:1.2;margin-top:2.85pt;margin-bottom:11.9pt;&quot; dir=&quot;ltr&quot;&gt;&lt;span style=&quot;font-size: 10.5pt; font-family: &amp;quot;Courier New&amp;quot;, monospace; color: rgb(0, 0, 0); background-color: transparent; font-weight: 400; font-style: normal; font-variant: normal; text-decoration: none; vertical-align: baseline;&quot;&gt;+sellStock(int, int): void&lt;/span&gt;&lt;/p&gt;" style="text;strokeColor=none;fillColor=none;align=left;verticalAlign=top;spacingLeft=4;spacingRight=4;overflow=hidden;rotatable=0;points=[[0,0.5],[1,0.5]];portConstraint=eastwest;whiteSpace=wrap;html=1;" parent="USDanAkHQFgCQKbm2OGE-4" vertex="1">
          <mxGeometry y="148" width="256" height="422" as="geometry" />
        </mxCell>
        <mxCell id="USDanAkHQFgCQKbm2OGE-8" value="User" style="swimlane;fontStyle=1;align=center;verticalAlign=top;childLayout=stackLayout;horizontal=1;startSize=26;horizontalStack=0;resizeParent=1;resizeParentMax=0;resizeLast=0;collapsible=1;marginBottom=0;whiteSpace=wrap;html=1;" parent="WIyWlLk6GJQsqaUBKTNV-1" vertex="1">
          <mxGeometry x="450" y="40" width="340" height="290" as="geometry" />
        </mxCell>
        <mxCell id="USDanAkHQFgCQKbm2OGE-9" value="&lt;meta charset=&quot;utf-8&quot;&gt;&lt;span id=&quot;docs-internal-guid-135ac0a1-7fff-2248-05c0-45249f0537f8&quot; style=&quot;font-size: 12pt; font-family: FreeSerif; color: rgb(0, 0, 0); background-color: transparent; font-weight: 400; font-style: normal; font-variant: normal; text-decoration: none; vertical-align: baseline;&quot;&gt;-accounts[ ]: Account[ ]&lt;/span&gt;" style="text;strokeColor=none;fillColor=none;align=left;verticalAlign=top;spacingLeft=4;spacingRight=4;overflow=hidden;rotatable=0;points=[[0,0.5],[1,0.5]];portConstraint=eastwest;whiteSpace=wrap;html=1;" parent="USDanAkHQFgCQKbm2OGE-8" vertex="1">
          <mxGeometry y="26" width="340" height="26" as="geometry" />
        </mxCell>
        <mxCell id="USDanAkHQFgCQKbm2OGE-10" value="" style="line;strokeWidth=1;fillColor=none;align=left;verticalAlign=middle;spacingTop=-1;spacingLeft=3;spacingRight=3;rotatable=0;labelPosition=right;points=[];portConstraint=eastwest;strokeColor=inherit;" parent="USDanAkHQFgCQKbm2OGE-8" vertex="1">
          <mxGeometry y="52" width="340" height="8" as="geometry" />
        </mxCell>
        <mxCell id="USDanAkHQFgCQKbm2OGE-11" value="&lt;meta charset=&quot;utf-8&quot;&gt;&lt;p id=&quot;docs-internal-guid-5bbfea3f-7fff-f838-6d5f-31c48c1a3eee&quot; style=&quot;line-height:1.2;margin-top:2.85pt;margin-bottom:11.9pt;&quot; dir=&quot;ltr&quot;&gt;&lt;span style=&quot;font-size: 12pt; font-family: FreeSerif; color: rgb(0, 0, 0); background-color: transparent; font-weight: 400; font-style: normal; font-variant: normal; text-decoration: none; vertical-align: baseline;&quot;&gt;+get()&lt;/span&gt;&lt;/p&gt;&lt;p style=&quot;line-height:1.2;margin-top:2.85pt;margin-bottom:11.9pt;&quot; dir=&quot;ltr&quot;&gt;&lt;span style=&quot;font-size: 12pt; font-family: FreeSerif; color: rgb(0, 0, 0); background-color: transparent; font-weight: 400; font-style: normal; font-variant: normal; text-decoration: none; vertical-align: baseline;&quot;&gt;+changeBalance(int, float): void&lt;/span&gt;&lt;/p&gt;&lt;p style=&quot;line-height:1.2;margin-top:2.85pt;margin-bottom:11.9pt;&quot; dir=&quot;ltr&quot;&gt;&lt;span style=&quot;font-size: 12pt; font-family: FreeSerif; color: rgb(0, 0, 0); background-color: transparent; font-weight: 400; font-style: normal; font-variant: normal; text-decoration: none; vertical-align: baseline;&quot;&gt;+&lt;/span&gt;&lt;span style=&quot;font-size: 10.5pt; font-family: &amp;quot;Courier New&amp;quot;, monospace; color: rgb(0, 0, 0); background-color: transparent; font-weight: 400; font-style: normal; font-variant: normal; text-decoration: none; vertical-align: baseline;&quot;&gt;buyFromAccountStockAmount(int, int, int): void&lt;/span&gt;&lt;/p&gt;&lt;p style=&quot;line-height:1.6285714285714286;background-color:#ffffff;margin-top:0pt;margin-bottom:0pt;padding:-9.05pt 0pt 11.9pt 0pt;&quot; dir=&quot;ltr&quot;&gt;&lt;span style=&quot;font-size: 10.5pt; font-family: &amp;quot;Courier New&amp;quot;, monospace; color: rgb(0, 0, 0); background-color: transparent; font-weight: 400; font-style: normal; font-variant: normal; text-decoration: none; vertical-align: baseline;&quot;&gt;+sellFromAccountStockAmount(int, int, int):void&lt;/span&gt;&lt;/p&gt;&lt;p style=&quot;line-height:1.6285714285714286;background-color:#ffffff;margin-top:0pt;margin-bottom:11.9pt;padding:-9.05pt 0pt 0pt 0pt;&quot; dir=&quot;ltr&quot;&gt;&lt;span style=&quot;font-size: 10.5pt; font-family: &amp;quot;Courier New&amp;quot;, monospace; color: rgb(0, 0, 0); background-color: transparent; font-weight: 400; font-style: normal; font-variant: normal; text-decoration: none; vertical-align: baseline;&quot;&gt;+addAccount(Account): void&lt;/span&gt;&lt;/p&gt;" style="text;strokeColor=none;fillColor=none;align=left;verticalAlign=top;spacingLeft=4;spacingRight=4;overflow=hidden;rotatable=0;points=[[0,0.5],[1,0.5]];portConstraint=eastwest;whiteSpace=wrap;html=1;" parent="USDanAkHQFgCQKbm2OGE-8" vertex="1">
          <mxGeometry y="60" width="340" height="230" as="geometry" />
        </mxCell>
      </root>
    </mxGraphModel>
  </diagram>
</mxfile>
